<svg width="80" height="71" viewBox="0 0 80 71" fill="none" xmlns="http://www.w3.org/2000/svg">
<path d="M79.2568 57.6413C79.2568 51.7489 79.8409 45.3867 78.4313 39.6721L72.1707 12.8516C71.6119 10.4134 71.2183 7.84821 70.3801 5.48619C69.1483 1.99394 65.5926 -0.329988 61.8717 0.038285C58.8748 0.266868 50.5696 5.3211 47.6869 6.88308L40.7024 10.7055C32.9941 14.9089 33.8068 15.1883 32.1559 22.8458L26.708 48.6376C26.2636 50.5552 26.2001 51.3552 26.2001 53.3363V61.7557C26.2001 65.794 26.8223 69.7181 31.6988 70.734C34.2386 71.2674 40.8548 70.8229 43.7502 70.8864C50.7601 70.7975 57.77 70.8737 64.7671 70.8737H70.1261C74.0248 70.8737 78.025 70.5308 79.0663 65.6925C79.333 64.4225 79.2695 63.0257 79.2568 61.7431V57.6413Z" fill="#3B4262"/>
<path d="M27.343 30.1732C26.5176 29.2969 25.4636 28.5604 24.5492 27.7857C22.1491 25.8047 20.3204 23.6331 17.0187 23.5443C11.9899 23.8363 11.0374 26.8206 9.19606 30.6684L2.61794 44.231C0.586089 48.3582 -0.0107644 48.6376 0.00193466 53.1458V61.997C0.00193466 64.8289 -0.150453 67.3306 2.24967 69.4006C4.5228 71.3689 7.57058 70.8483 10.3517 70.8864C14.4916 70.861 18.6315 70.9372 22.7714 70.861V53.0442C22.7714 50.6948 22.8349 50.0218 23.3809 47.736C24.8032 41.9071 25.8826 36.002 27.343 30.1732Z" fill="#3B4262"/>
</svg>
