<svg width="306" height="270" viewBox="0 0 306 270" fill="none" xmlns="http://www.w3.org/2000/svg">
<circle cx="55" cy="55" r="55" fill="#B1B4C5"/>
<circle cx="55.5" cy="55.5" r="42.5" fill="#E1E4ED"/>
<circle cx="251" cy="55" r="55" fill="#B1B4C5"/>
<circle cx="251.5" cy="55.5" r="42.5" fill="#E1E4ED"/>
<circle cx="153" cy="215" r="55" fill="#B1B4C5"/>
<circle cx="153.5" cy="215.5" r="42.5" fill="#E1E4ED"/>
<path d="M140.617 27.478C140.617 28.3013 140.348 28.9297 139.811 29.363C139.282 29.7877 138.598 30 137.757 30H134.845C134.802 30 134.763 29.987 134.728 29.961C134.702 29.9263 134.689 29.8873 134.689 29.844V21.056C134.689 21.0127 134.702 20.978 134.728 20.952C134.763 20.9173 134.802 20.9 134.845 20.9H137.562C138.489 20.9 139.209 21.108 139.72 21.524C140.231 21.9313 140.487 22.5553 140.487 23.396C140.487 24.254 140.153 24.8737 139.486 25.255C139.443 25.281 139.438 25.307 139.473 25.333C140.236 25.7663 140.617 26.4813 140.617 27.478ZM136.587 22.473C136.544 22.473 136.522 22.4947 136.522 22.538V24.579C136.522 24.6223 136.544 24.644 136.587 24.644H137.575C137.922 24.644 138.195 24.5487 138.394 24.358C138.593 24.1673 138.693 23.903 138.693 23.565C138.693 23.2183 138.593 22.9497 138.394 22.759C138.203 22.5683 137.93 22.473 137.575 22.473H136.587ZM137.679 28.414C138.026 28.414 138.294 28.3143 138.485 28.115C138.684 27.907 138.784 27.6167 138.784 27.244C138.784 26.8713 138.684 26.581 138.485 26.373C138.294 26.1563 138.026 26.048 137.679 26.048H136.587C136.544 26.048 136.522 26.0697 136.522 26.113V28.349C136.522 28.3923 136.544 28.414 136.587 28.414H137.679ZM147.298 22.317C147.298 22.3603 147.281 22.3993 147.246 22.434C147.22 22.46 147.186 22.473 147.142 22.473H143.658C143.615 22.473 143.593 22.4947 143.593 22.538V24.566C143.593 24.6093 143.615 24.631 143.658 24.631H145.829C145.873 24.631 145.907 24.6483 145.933 24.683C145.968 24.709 145.985 24.7437 145.985 24.787V26.048C145.985 26.0913 145.968 26.1303 145.933 26.165C145.907 26.191 145.873 26.204 145.829 26.204H143.658C143.615 26.204 143.593 26.2257 143.593 26.269V28.362C143.593 28.4053 143.615 28.427 143.658 28.427H147.142C147.186 28.427 147.22 28.4443 147.246 28.479C147.281 28.505 147.298 28.5397 147.298 28.583V29.844C147.298 29.8873 147.281 29.9263 147.246 29.961C147.22 29.987 147.186 30 147.142 30H141.916C141.873 30 141.834 29.987 141.799 29.961C141.773 29.9263 141.76 29.8873 141.76 29.844V21.056C141.76 21.0127 141.773 20.978 141.799 20.952C141.834 20.9173 141.873 20.9 141.916 20.9H147.142C147.186 20.9 147.22 20.9173 147.246 20.952C147.281 20.978 147.298 21.0127 147.298 21.056V22.317ZM153.312 30C153.216 30 153.156 29.9567 153.13 29.87L152.831 28.596C152.822 28.5613 152.8 28.544 152.766 28.544H150.335C150.3 28.544 150.278 28.5613 150.27 28.596L149.971 29.87C149.945 29.9567 149.888 30 149.802 30H148.229C148.116 30 148.073 29.9437 148.099 29.831L150.439 21.03C150.465 20.9433 150.525 20.9 150.621 20.9H152.506C152.601 20.9 152.662 20.9433 152.688 21.03L155.028 29.831L155.041 29.883C155.041 29.961 154.993 30 154.898 30H153.312ZM150.621 27.049C150.612 27.075 150.616 27.0967 150.634 27.114C150.651 27.1227 150.668 27.127 150.686 27.127H152.402C152.419 27.127 152.436 27.1227 152.454 27.114C152.471 27.0967 152.475 27.075 152.467 27.049L151.57 23.279C151.561 23.2443 151.548 23.227 151.531 23.227C151.513 23.227 151.5 23.2443 151.492 23.279L150.621 27.049ZM160.707 20.9C160.751 20.9 160.785 20.9173 160.811 20.952C160.846 20.978 160.863 21.0127 160.863 21.056V22.33C160.863 22.3733 160.846 22.4123 160.811 22.447C160.785 22.473 160.751 22.486 160.707 22.486H158.731C158.688 22.486 158.666 22.5077 158.666 22.551V29.844C158.666 29.8873 158.649 29.9263 158.614 29.961C158.588 29.987 158.554 30 158.51 30H156.989C156.946 30 156.907 29.987 156.872 29.961C156.846 29.9263 156.833 29.8873 156.833 29.844V22.551C156.833 22.5077 156.812 22.486 156.768 22.486H154.857C154.814 22.486 154.775 22.473 154.74 22.447C154.714 22.4123 154.701 22.3733 154.701 22.33V21.056C154.701 21.0127 154.714 20.978 154.74 20.952C154.775 20.9173 154.814 20.9 154.857 20.9H160.707ZM164.587 30.104C163.989 30.104 163.465 30 163.014 29.792C162.563 29.5753 162.212 29.2763 161.961 28.895C161.718 28.505 161.597 28.0587 161.597 27.556V27.218C161.597 27.1747 161.61 27.14 161.636 27.114C161.671 27.0793 161.71 27.062 161.753 27.062H163.248C163.291 27.062 163.326 27.0793 163.352 27.114C163.387 27.14 163.404 27.1747 163.404 27.218V27.465C163.404 27.7683 163.517 28.024 163.742 28.232C163.967 28.4313 164.271 28.531 164.652 28.531C164.99 28.531 165.246 28.4443 165.419 28.271C165.601 28.0977 165.692 27.8767 165.692 27.608C165.692 27.4087 165.636 27.2397 165.523 27.101C165.41 26.9537 165.25 26.8193 165.042 26.698C164.843 26.568 164.531 26.3947 164.106 26.178C163.586 25.918 163.161 25.6753 162.832 25.45C162.503 25.2247 162.221 24.9343 161.987 24.579C161.753 24.2237 161.636 23.7947 161.636 23.292C161.636 22.7893 161.753 22.3517 161.987 21.979C162.23 21.5977 162.568 21.3073 163.001 21.108C163.434 20.9 163.928 20.796 164.483 20.796C165.064 20.796 165.579 20.9087 166.03 21.134C166.481 21.3507 166.832 21.6583 167.083 22.057C167.334 22.4557 167.46 22.915 167.46 23.435V23.695C167.46 23.7383 167.443 23.7773 167.408 23.812C167.382 23.838 167.347 23.851 167.304 23.851H165.809C165.766 23.851 165.727 23.838 165.692 23.812C165.666 23.7773 165.653 23.7383 165.653 23.695V23.461C165.653 23.149 165.545 22.889 165.328 22.681C165.111 22.473 164.817 22.369 164.444 22.369C164.132 22.369 163.885 22.4513 163.703 22.616C163.53 22.772 163.443 22.993 163.443 23.279C163.443 23.4783 163.495 23.6517 163.599 23.799C163.703 23.9463 163.863 24.0893 164.08 24.228C164.297 24.358 164.626 24.5313 165.068 24.748L165.341 24.904C165.844 25.1813 166.234 25.424 166.511 25.632C166.797 25.8313 167.035 26.087 167.226 26.399C167.417 26.711 167.512 27.088 167.512 27.53C167.512 28.3187 167.243 28.947 166.706 29.415C166.177 29.8743 165.471 30.104 164.587 30.104Z" fill="#B1B4C5"/>
<path d="M46.617 143.478C46.617 144.301 46.3483 144.93 45.811 145.363C45.2823 145.788 44.5977 146 43.757 146H40.845C40.8017 146 40.7627 145.987 40.728 145.961C40.702 145.926 40.689 145.887 40.689 145.844V137.056C40.689 137.013 40.702 136.978 40.728 136.952C40.7627 136.917 40.8017 136.9 40.845 136.9H43.562C44.4893 136.9 45.2087 137.108 45.72 137.524C46.2313 137.931 46.487 138.555 46.487 139.396C46.487 140.254 46.1533 140.874 45.486 141.255C45.4427 141.281 45.4383 141.307 45.473 141.333C46.2357 141.766 46.617 142.481 46.617 143.478ZM42.587 138.473C42.5437 138.473 42.522 138.495 42.522 138.538V140.579C42.522 140.622 42.5437 140.644 42.587 140.644H43.575C43.9217 140.644 44.1947 140.549 44.394 140.358C44.5933 140.167 44.693 139.903 44.693 139.565C44.693 139.218 44.5933 138.95 44.394 138.759C44.2033 138.568 43.9303 138.473 43.575 138.473H42.587ZM43.679 144.414C44.0257 144.414 44.2943 144.314 44.485 144.115C44.6843 143.907 44.784 143.617 44.784 143.244C44.784 142.871 44.6843 142.581 44.485 142.373C44.2943 142.156 44.0257 142.048 43.679 142.048H42.587C42.5437 142.048 42.522 142.07 42.522 142.113V144.349C42.522 144.392 42.5437 144.414 42.587 144.414H43.679ZM53.2983 138.317C53.2983 138.36 53.281 138.399 53.2463 138.434C53.2203 138.46 53.1856 138.473 53.1423 138.473H49.6583C49.615 138.473 49.5933 138.495 49.5933 138.538V140.566C49.5933 140.609 49.615 140.631 49.6583 140.631H51.8293C51.8726 140.631 51.9073 140.648 51.9333 140.683C51.968 140.709 51.9853 140.744 51.9853 140.787V142.048C51.9853 142.091 51.968 142.13 51.9333 142.165C51.9073 142.191 51.8726 142.204 51.8293 142.204H49.6583C49.615 142.204 49.5933 142.226 49.5933 142.269V144.362C49.5933 144.405 49.615 144.427 49.6583 144.427H53.1423C53.1856 144.427 53.2203 144.444 53.2463 144.479C53.281 144.505 53.2983 144.54 53.2983 144.583V145.844C53.2983 145.887 53.281 145.926 53.2463 145.961C53.2203 145.987 53.1856 146 53.1423 146H47.9163C47.873 146 47.834 145.987 47.7993 145.961C47.7733 145.926 47.7603 145.887 47.7603 145.844V137.056C47.7603 137.013 47.7733 136.978 47.7993 136.952C47.834 136.917 47.873 136.9 47.9163 136.9H53.1423C53.1856 136.9 53.2203 136.917 53.2463 136.952C53.281 136.978 53.2983 137.013 53.2983 137.056V138.317ZM59.3115 146C59.2162 146 59.1555 145.957 59.1295 145.87L58.8305 144.596C58.8218 144.561 58.8002 144.544 58.7655 144.544H56.3345C56.2998 144.544 56.2782 144.561 56.2695 144.596L55.9705 145.87C55.9445 145.957 55.8882 146 55.8015 146H54.2285C54.1158 146 54.0725 145.944 54.0985 145.831L56.4385 137.03C56.4645 136.943 56.5252 136.9 56.6205 136.9H58.5055C58.6008 136.9 58.6615 136.943 58.6875 137.03L61.0275 145.831L61.0405 145.883C61.0405 145.961 60.9928 146 60.8975 146H59.3115ZM56.6205 143.049C56.6118 143.075 56.6162 143.097 56.6335 143.114C56.6508 143.123 56.6682 143.127 56.6855 143.127H58.4015C58.4188 143.127 58.4362 143.123 58.4535 143.114C58.4708 143.097 58.4752 143.075 58.4665 143.049L57.5695 139.279C57.5608 139.244 57.5478 139.227 57.5305 139.227C57.5132 139.227 57.5002 139.244 57.4915 139.279L56.6205 143.049ZM66.7073 136.9C66.7506 136.9 66.7853 136.917 66.8113 136.952C66.8459 136.978 66.8633 137.013 66.8633 137.056V138.33C66.8633 138.373 66.8459 138.412 66.8113 138.447C66.7853 138.473 66.7506 138.486 66.7073 138.486H64.7313C64.6879 138.486 64.6663 138.508 64.6663 138.551V145.844C64.6663 145.887 64.6489 145.926 64.6143 145.961C64.5883 145.987 64.5536 146 64.5103 146H62.9893C62.9459 146 62.9069 145.987 62.8723 145.961C62.8463 145.926 62.8333 145.887 62.8333 145.844V138.551C62.8333 138.508 62.8116 138.486 62.7683 138.486H60.8573C60.8139 138.486 60.7749 138.473 60.7403 138.447C60.7143 138.412 60.7013 138.373 60.7013 138.33V137.056C60.7013 137.013 60.7143 136.978 60.7403 136.952C60.7749 136.917 60.8139 136.9 60.8573 136.9H66.7073ZM70.587 146.104C69.989 146.104 69.4646 146 69.014 145.792C68.5633 145.575 68.2123 145.276 67.961 144.895C67.7183 144.505 67.597 144.059 67.597 143.556V143.218C67.597 143.175 67.61 143.14 67.636 143.114C67.6706 143.079 67.7096 143.062 67.753 143.062H69.248C69.2913 143.062 69.326 143.079 69.352 143.114C69.3866 143.14 69.404 143.175 69.404 143.218V143.465C69.404 143.768 69.5166 144.024 69.742 144.232C69.9673 144.431 70.2706 144.531 70.652 144.531C70.99 144.531 71.2456 144.444 71.419 144.271C71.601 144.098 71.692 143.877 71.692 143.608C71.692 143.409 71.6356 143.24 71.523 143.101C71.4103 142.954 71.25 142.819 71.042 142.698C70.8426 142.568 70.5306 142.395 70.106 142.178C69.586 141.918 69.1613 141.675 68.832 141.45C68.5026 141.225 68.221 140.934 67.987 140.579C67.753 140.224 67.636 139.795 67.636 139.292C67.636 138.789 67.753 138.352 67.987 137.979C68.2296 137.598 68.5676 137.307 69.001 137.108C69.4343 136.9 69.9283 136.796 70.483 136.796C71.0636 136.796 71.5793 136.909 72.03 137.134C72.4806 137.351 72.8316 137.658 73.083 138.057C73.3343 138.456 73.46 138.915 73.46 139.435V139.695C73.46 139.738 73.4426 139.777 73.408 139.812C73.382 139.838 73.3473 139.851 73.304 139.851H71.809C71.7656 139.851 71.7266 139.838 71.692 139.812C71.666 139.777 71.653 139.738 71.653 139.695V139.461C71.653 139.149 71.5446 138.889 71.328 138.681C71.1113 138.473 70.8166 138.369 70.444 138.369C70.132 138.369 69.885 138.451 69.703 138.616C69.5296 138.772 69.443 138.993 69.443 139.279C69.443 139.478 69.495 139.652 69.599 139.799C69.703 139.946 69.8633 140.089 70.08 140.228C70.2966 140.358 70.626 140.531 71.068 140.748L71.341 140.904C71.8436 141.181 72.2336 141.424 72.511 141.632C72.797 141.831 73.0353 142.087 73.226 142.399C73.4166 142.711 73.512 143.088 73.512 143.53C73.512 144.319 73.2433 144.947 72.706 145.415C72.1773 145.874 71.471 146.104 70.587 146.104Z" fill="#B1B4C5"/>
<path d="M241.617 143.478C241.617 144.301 241.348 144.93 240.811 145.363C240.282 145.788 239.598 146 238.757 146H235.845C235.802 146 235.763 145.987 235.728 145.961C235.702 145.926 235.689 145.887 235.689 145.844V137.056C235.689 137.013 235.702 136.978 235.728 136.952C235.763 136.917 235.802 136.9 235.845 136.9H238.562C239.489 136.9 240.209 137.108 240.72 137.524C241.231 137.931 241.487 138.555 241.487 139.396C241.487 140.254 241.153 140.874 240.486 141.255C240.443 141.281 240.438 141.307 240.473 141.333C241.236 141.766 241.617 142.481 241.617 143.478ZM237.587 138.473C237.544 138.473 237.522 138.495 237.522 138.538V140.579C237.522 140.622 237.544 140.644 237.587 140.644H238.575C238.922 140.644 239.195 140.549 239.394 140.358C239.593 140.167 239.693 139.903 239.693 139.565C239.693 139.218 239.593 138.95 239.394 138.759C239.203 138.568 238.93 138.473 238.575 138.473H237.587ZM238.679 144.414C239.026 144.414 239.294 144.314 239.485 144.115C239.684 143.907 239.784 143.617 239.784 143.244C239.784 142.871 239.684 142.581 239.485 142.373C239.294 142.156 239.026 142.048 238.679 142.048H237.587C237.544 142.048 237.522 142.07 237.522 142.113V144.349C237.522 144.392 237.544 144.414 237.587 144.414H238.679ZM248.298 138.317C248.298 138.36 248.281 138.399 248.246 138.434C248.22 138.46 248.186 138.473 248.142 138.473H244.658C244.615 138.473 244.593 138.495 244.593 138.538V140.566C244.593 140.609 244.615 140.631 244.658 140.631H246.829C246.873 140.631 246.907 140.648 246.933 140.683C246.968 140.709 246.985 140.744 246.985 140.787V142.048C246.985 142.091 246.968 142.13 246.933 142.165C246.907 142.191 246.873 142.204 246.829 142.204H244.658C244.615 142.204 244.593 142.226 244.593 142.269V144.362C244.593 144.405 244.615 144.427 244.658 144.427H248.142C248.186 144.427 248.22 144.444 248.246 144.479C248.281 144.505 248.298 144.54 248.298 144.583V145.844C248.298 145.887 248.281 145.926 248.246 145.961C248.22 145.987 248.186 146 248.142 146H242.916C242.873 146 242.834 145.987 242.799 145.961C242.773 145.926 242.76 145.887 242.76 145.844V137.056C242.76 137.013 242.773 136.978 242.799 136.952C242.834 136.917 242.873 136.9 242.916 136.9H248.142C248.186 136.9 248.22 136.917 248.246 136.952C248.281 136.978 248.298 137.013 248.298 137.056V138.317ZM254.312 146C254.216 146 254.156 145.957 254.13 145.87L253.831 144.596C253.822 144.561 253.8 144.544 253.766 144.544H251.335C251.3 144.544 251.278 144.561 251.27 144.596L250.971 145.87C250.945 145.957 250.888 146 250.802 146H249.229C249.116 146 249.073 145.944 249.099 145.831L251.439 137.03C251.465 136.943 251.525 136.9 251.621 136.9H253.506C253.601 136.9 253.662 136.943 253.688 137.03L256.028 145.831L256.041 145.883C256.041 145.961 255.993 146 255.898 146H254.312ZM251.621 143.049C251.612 143.075 251.616 143.097 251.634 143.114C251.651 143.123 251.668 143.127 251.686 143.127H253.402C253.419 143.127 253.436 143.123 253.454 143.114C253.471 143.097 253.475 143.075 253.467 143.049L252.57 139.279C252.561 139.244 252.548 139.227 252.531 139.227C252.513 139.227 252.5 139.244 252.492 139.279L251.621 143.049ZM261.707 136.9C261.751 136.9 261.785 136.917 261.811 136.952C261.846 136.978 261.863 137.013 261.863 137.056V138.33C261.863 138.373 261.846 138.412 261.811 138.447C261.785 138.473 261.751 138.486 261.707 138.486H259.731C259.688 138.486 259.666 138.508 259.666 138.551V145.844C259.666 145.887 259.649 145.926 259.614 145.961C259.588 145.987 259.554 146 259.51 146H257.989C257.946 146 257.907 145.987 257.872 145.961C257.846 145.926 257.833 145.887 257.833 145.844V138.551C257.833 138.508 257.812 138.486 257.768 138.486H255.857C255.814 138.486 255.775 138.473 255.74 138.447C255.714 138.412 255.701 138.373 255.701 138.33V137.056C255.701 137.013 255.714 136.978 255.74 136.952C255.775 136.917 255.814 136.9 255.857 136.9H261.707ZM265.587 146.104C264.989 146.104 264.465 146 264.014 145.792C263.563 145.575 263.212 145.276 262.961 144.895C262.718 144.505 262.597 144.059 262.597 143.556V143.218C262.597 143.175 262.61 143.14 262.636 143.114C262.671 143.079 262.71 143.062 262.753 143.062H264.248C264.291 143.062 264.326 143.079 264.352 143.114C264.387 143.14 264.404 143.175 264.404 143.218V143.465C264.404 143.768 264.517 144.024 264.742 144.232C264.967 144.431 265.271 144.531 265.652 144.531C265.99 144.531 266.246 144.444 266.419 144.271C266.601 144.098 266.692 143.877 266.692 143.608C266.692 143.409 266.636 143.24 266.523 143.101C266.41 142.954 266.25 142.819 266.042 142.698C265.843 142.568 265.531 142.395 265.106 142.178C264.586 141.918 264.161 141.675 263.832 141.45C263.503 141.225 263.221 140.934 262.987 140.579C262.753 140.224 262.636 139.795 262.636 139.292C262.636 138.789 262.753 138.352 262.987 137.979C263.23 137.598 263.568 137.307 264.001 137.108C264.434 136.9 264.928 136.796 265.483 136.796C266.064 136.796 266.579 136.909 267.03 137.134C267.481 137.351 267.832 137.658 268.083 138.057C268.334 138.456 268.46 138.915 268.46 139.435V139.695C268.46 139.738 268.443 139.777 268.408 139.812C268.382 139.838 268.347 139.851 268.304 139.851H266.809C266.766 139.851 266.727 139.838 266.692 139.812C266.666 139.777 266.653 139.738 266.653 139.695V139.461C266.653 139.149 266.545 138.889 266.328 138.681C266.111 138.473 265.817 138.369 265.444 138.369C265.132 138.369 264.885 138.451 264.703 138.616C264.53 138.772 264.443 138.993 264.443 139.279C264.443 139.478 264.495 139.652 264.599 139.799C264.703 139.946 264.863 140.089 265.08 140.228C265.297 140.358 265.626 140.531 266.068 140.748L266.341 140.904C266.844 141.181 267.234 141.424 267.511 141.632C267.797 141.831 268.035 142.087 268.226 142.399C268.417 142.711 268.512 143.088 268.512 143.53C268.512 144.319 268.243 144.947 267.706 145.415C267.177 145.874 266.471 146.104 265.587 146.104Z" fill="#B1B4C5"/>
<rect width="50" height="4" rx="2" transform="matrix(-1 0 0 1 177 49)" fill="#B1B4C5"/>
<path fill-rule="evenodd" clip-rule="evenodd" d="M137.645 41.0093C136.92 40.2874 135.747 40.2932 135.029 41.0222L126.439 49.7504C125.728 50.4732 125.733 51.6349 126.452 52.3506V52.3506C127.177 53.0724 128.35 53.0666 129.068 52.3376L137.658 43.6094C138.369 42.8866 138.364 41.725 137.645 41.0093V41.0093Z" fill="#B1B4C5"/>
<path fill-rule="evenodd" clip-rule="evenodd" d="M137.645 60.9907C138.364 60.2749 138.369 59.1133 137.658 58.3905L129.068 49.6623C128.35 48.9333 127.177 48.9275 126.452 49.6494V49.6494C125.734 50.3651 125.728 51.5267 126.439 52.2495L135.029 60.9777C135.747 61.7067 136.92 61.7125 137.645 60.9907V60.9907Z" fill="#B1B4C5"/>
<rect width="50" height="4" rx="2" transform="matrix(0.573576 0.819152 0.819152 -0.573576 80.4487 117.849)" fill="#B1B4C5"/>
<path fill-rule="evenodd" clip-rule="evenodd" d="M96.4761 154.67C96.3004 155.677 96.9784 156.636 97.9871 156.805L110.064 158.836C111.064 159.004 112.012 158.333 112.186 157.334V157.334C112.362 156.326 111.684 155.368 110.675 155.198L98.5986 153.168C97.5985 153 96.6502 153.671 96.4761 154.67V154.67Z" fill="#B1B4C5"/>
<path fill-rule="evenodd" clip-rule="evenodd" d="M112.844 143.209C111.846 143.031 110.891 143.693 110.707 144.69L108.484 156.733C108.298 157.739 108.967 158.703 109.974 158.883V158.883C110.972 159.061 111.927 158.4 112.111 157.402L114.334 145.359C114.519 144.354 113.851 143.389 112.844 143.209V143.209Z" fill="#B1B4C5"/>
<rect x="195.449" y="158.151" width="50" height="4" rx="2" transform="rotate(-55 195.449 158.151)" fill="#B1B4C5"/>
<path fill-rule="evenodd" clip-rule="evenodd" d="M211.476 121.33C211.3 120.323 211.978 119.364 212.987 119.195L225.064 117.164C226.064 116.996 227.012 117.667 227.186 118.666V118.666C227.362 119.674 226.684 120.632 225.675 120.802L213.599 122.832C212.598 123 211.65 122.329 211.476 121.33V121.33Z" fill="#B1B4C5"/>
<path fill-rule="evenodd" clip-rule="evenodd" d="M227.844 132.791C226.846 132.969 225.891 132.307 225.707 131.31L223.484 119.267C223.298 118.261 223.967 117.297 224.974 117.117V117.117C225.972 116.939 226.927 117.6 227.111 118.598L229.334 130.641C229.519 131.646 228.851 132.611 227.844 132.791V132.791Z" fill="#B1B4C5"/>
<path d="M80.9245 69.3086C80.9245 65.597 81.2924 61.5894 80.4045 57.9897L76.4609 41.0953C76.1089 39.5595 75.8609 37.9436 75.333 36.4558C74.5571 34.256 72.3173 32.7921 69.9735 33.0241C68.0857 33.1681 62.8542 36.3518 61.0384 37.3357L56.6388 39.7435C51.7833 42.3912 52.2952 42.5672 51.2553 47.3907L47.8236 63.6372C47.5437 64.8451 47.5037 65.349 47.5037 66.5969V71.9004C47.5037 74.4441 47.8956 76.9159 50.9673 77.5558C52.5672 77.8918 56.7348 77.6118 58.5586 77.6518C62.9742 77.5958 67.3898 77.6438 71.7973 77.6438H75.173C77.6288 77.6438 80.1485 77.4279 80.8045 74.3801C80.9724 73.5802 80.9325 72.7003 80.9245 71.8924V69.3086Z" fill="#8A90AC"/>
<path d="M48.2236 52.0062C47.7036 51.4542 47.0397 50.9903 46.4637 50.5023C44.9519 49.2544 43.8 47.8866 41.7202 47.8306C38.5525 48.0145 37.9526 49.8944 36.7927 52.3181L32.6491 60.8613C31.3692 63.4611 30.9932 63.637 31.0012 66.4768V72.0522C31.0012 73.8361 30.9052 75.4119 32.4171 76.7158C33.8489 77.9557 35.7688 77.6277 37.5206 77.6517C40.1283 77.6357 42.7361 77.6837 45.3438 77.6357V66.4128C45.3438 64.9329 45.3838 64.509 45.7278 63.0691C46.6237 59.3975 47.3037 55.6778 48.2236 52.0062Z" fill="#8A90AC"/>
<path fill-rule="evenodd" clip-rule="evenodd" d="M256.19 55.5274L277 71.993L276.993 71.9861C276.993 71.9861 275.003 72.7017 272.697 71.3393L252.257 59.532C252.042 59.4082 251.836 59.2705 251.64 59.1192L248.16 61.8783C245.936 63.6329 244.584 66.2614 244.405 69.0962C244.426 69.8324 244.351 70.5756 244.193 71.2912C243.74 73.2591 242.614 75.0205 241.015 76.259C239.182 77.6765 236.897 78.2889 234.584 77.9861C232.264 77.6834 230.212 76.4999 228.798 74.6558C227.947 73.548 227.391 72.2957 227.144 70.9334C226.979 70.0595 226.959 69.165 227.068 68.2705C227.35 65.9792 228.503 63.9288 230.315 62.4976C231.88 61.2522 233.843 60.5916 235.833 60.6192C235.833 60.6192 236.684 60.5916 237.906 60.9288C240.404 61.6238 243.081 61.1215 245.106 59.5114L245.16 59.4701L247.94 57.282L249.011 55.5274L247.94 53.7728L245.16 51.5917L245.106 51.5504C243.081 49.9334 240.404 49.438 237.906 50.1329C236.684 50.4701 235.833 50.4426 235.833 50.4426C233.843 50.4701 231.88 49.8095 230.315 48.5641C228.503 47.1329 227.35 45.0825 227.068 42.7912C226.959 41.8967 226.979 41.0022 227.144 40.1284C227.391 38.766 227.947 37.5137 228.798 36.4059C230.212 34.5619 232.264 33.3784 234.584 33.0756C236.897 32.7729 239.182 33.3853 241.015 34.8027C242.614 36.0343 243.74 37.8027 244.193 39.7706C244.351 40.4862 244.426 41.2293 244.405 41.9655C244.584 44.8004 245.936 47.4288 248.16 49.1834L251.64 51.9357C251.836 51.7889 252.042 51.6536 252.257 51.5297L272.697 39.7224C275.003 38.36 276.993 39.0687 276.993 39.0687H277L256.19 55.5274ZM239.457 36.9426C237.988 35.7729 236.094 35.36 234.227 35.8142C233.177 36.0756 232.202 36.6261 231.434 37.3967C230.308 38.5252 229.683 39.9908 229.642 41.5252C229.622 42.0687 229.683 42.6261 229.814 43.1696C230.075 44.2499 230.63 45.2339 231.413 46.0183C232.758 47.3462 234.57 47.9724 236.416 47.7522C238.022 47.5596 239.464 46.7545 240.466 45.4816C241.077 44.7041 241.488 43.7889 241.667 42.8187C242.072 40.5963 241.228 38.3394 239.457 36.9426ZM241.667 68.2361C241.488 67.2728 241.077 66.3508 240.466 65.5802C239.464 64.3004 238.022 63.4953 236.416 63.3026C234.57 63.0893 232.758 63.7086 231.413 65.0435C230.63 65.821 230.075 66.8118 229.814 67.8852C229.683 68.4357 229.622 68.9861 229.642 69.5366C229.683 71.071 230.308 72.5297 231.434 73.665C232.202 74.4357 233.177 74.9861 234.227 75.2407C236.094 75.7017 237.988 75.282 239.457 74.1191C241.228 72.7155 242.072 70.4655 241.667 68.2361Z" fill="#8A90AC"/>
<path d="M150.675 233.385L132.147 222.048L129 224.103L150.643 237.343L179 218.808L175.889 216.902L150.675 233.385Z" fill="#8A90AC"/>
<path d="M150.675 227.101L132.147 215.764L129 217.819L150.643 231.062L179 212.524L175.889 210.621L150.675 227.101Z" fill="#8A90AC"/>
<path d="M150.643 224.778L129 211.538L157.36 193L179 206.24L150.643 224.778Z" fill="#8A90AC"/>
</svg>
