<svg width="81" height="73" viewBox="0 0 81 73" fill="none" xmlns="http://www.w3.org/2000/svg">
<path fill-rule="evenodd" clip-rule="evenodd" d="M47.2878 36.4944L81 63.1686L80.9889 63.1575C80.9889 63.1575 77.7644 64.3168 74.0285 62.1097L40.9167 42.9819C40.5683 42.7812 40.2348 42.5583 39.916 42.313L34.2788 46.7829C30.6763 49.6253 28.4859 53.8834 28.1968 58.4759C28.2302 59.6686 28.1079 60.8724 27.8522 62.0317C27.1183 65.2197 25.2948 68.0732 22.7041 70.0796C19.7354 72.3759 16.0329 73.3679 12.2858 72.8775C8.52769 72.387 5.20316 70.4698 2.91269 67.4825C1.53396 65.6878 0.633324 63.6591 0.233048 61.452C-0.0338034 60.0364 -0.0671435 58.5873 0.110757 57.1382C0.566628 53.4264 2.43456 50.1046 5.36993 47.7861C7.90501 45.7685 11.085 44.6985 14.3095 44.743C14.3095 44.743 15.6882 44.6985 17.6673 45.2447C21.7146 46.3705 26.0509 45.5567 29.3309 42.9484L29.4199 42.8815L33.923 39.3369L35.6575 36.4944L33.923 33.652L29.4199 30.1185L29.3309 30.0516C26.0509 27.4321 21.7146 26.6295 17.6673 27.7554C15.6882 28.3016 14.3095 28.257 14.3095 28.257C11.085 28.3016 7.90501 27.2315 5.36993 25.2139C2.43456 22.8954 0.566628 19.5736 0.110757 15.8617C-0.0671435 14.4127 -0.0338034 12.9636 0.233048 11.548C0.633324 9.34089 1.53396 7.31218 2.91269 5.51755C5.20316 2.53022 8.52769 0.61297 12.2858 0.122512C16.0329 -0.367946 19.7354 0.624114 22.7041 2.92035C25.2948 4.91562 27.1183 7.78035 27.8522 10.9683C28.1079 12.1276 28.2302 13.3314 28.1968 14.5241C28.4859 19.1166 30.6763 23.3747 34.2788 26.2171L39.916 30.6758C40.2348 30.438 40.5683 30.2188 40.9167 30.0181L74.0285 10.8903C77.7644 8.68323 80.9889 9.83135 80.9889 9.83135H81L47.2878 36.4944ZM20.1802 6.38699C17.8008 4.49204 14.732 3.82325 11.7076 4.55893C10.0065 4.98251 8.4276 5.87425 7.18229 7.12269C5.35881 8.95076 4.34702 11.325 4.28031 13.8108C4.24695 14.6913 4.34702 15.5942 4.55828 16.4748C4.98079 18.2249 5.88139 19.8189 7.14893 21.0896C9.32822 23.2409 12.2636 24.2553 15.2546 23.8986C17.8563 23.5865 20.1913 22.2823 21.8146 20.2201C22.8042 18.9606 23.4713 17.478 23.7604 15.9063C24.4164 12.3059 23.0488 8.64979 20.1802 6.38699ZM23.7604 57.0825C23.4713 55.522 22.8042 54.0283 21.8146 52.7799C20.1913 50.7066 17.8563 49.4024 15.2546 49.0903C12.2636 48.7447 9.32822 49.7479 7.14893 51.9104C5.88139 53.17 4.98079 54.7751 4.55828 56.514C4.34702 57.4058 4.24695 58.2975 4.28031 59.1893C4.34702 61.675 5.35881 64.0381 7.18229 65.8773C8.4276 67.1258 10.0065 68.0175 11.7076 68.4299C14.732 69.1768 17.8008 68.4968 20.1802 66.613C23.0488 64.3391 24.4164 60.6941 23.7604 57.0825Z" fill="#3B4262"/>
</svg>
